<?xml version="1.0" standalone="no"?>
<!DOCTYPE svg PUBLIC "-//W3C//DTD SVG 20010904//EN"
 "http://www.w3.org/TR/2001/REC-SVG-20010904/DTD/svg10.dtd">
<svg version="1.0" xmlns="http://www.w3.org/2000/svg"
 width="72.000000pt" height="72.000000pt" viewBox="0 0 72.000000 72.000000"
 preserveAspectRatio="xMidYMid meet">
<metadata>
Created by potrace 1.11, written by Peter Selinger 2001-2013
</metadata>
<g transform="translate(0.000000,72.000000) scale(0.100000,-0.100000)"
fill="#000000" stroke="none">
<path d="M13 711 c-11 -8 -10 -92 1 -110 6 -10 6 -12 -3 -7 -14 9 -11 -30 3
-53 6 -10 5 -12 -3 -7 -14 9 -11 -30 3 -53 6 -10 5 -12 -3 -7 -14 9 -11 -30 3
-53 6 -10 5 -12 -3 -7 -14 9 -11 -30 3 -53 6 -10 5 -12 -3 -7 -14 9 -11 -30 3
-53 6 -10 5 -12 -3 -7 -14 9 -11 -30 3 -53 6 -10 5 -12 -3 -7 -14 9 -11 -30 3
-53 6 -10 5 -12 -3 -7 -14 9 -11 -30 3 -53 6 -10 5 -12 -3 -7 -14 9 -11 -30 3
-53 6 -10 5 -12 -2 -7 -8 5 -11 0 -8 -16 3 -13 5 -26 5 -29 1 -6 473 -3 506 4
19 4 28 7 87 29 36 13 82 56 100 93 19 40 24 110 7 100 -8 -6 -10 -4 -4 4 7
13 -10 55 -30 76 -5 6 -25 21 -43 34 -28 20 -43 26 -72 30 -3 1 14 11 38 22
23 12 52 35 64 51 22 32 34 97 23 126 -3 9 -7 19 -8 22 -10 35 -110 95 -176
107 -41 7 -479 11 -488 4z"/>
</g>
</svg>
